<?xml version="1.0" standalone="no"?>
<!DOCTYPE svg PUBLIC "-//W3C//DTD SVG 20010904//EN"
 "http://www.w3.org/TR/2001/REC-SVG-20010904/DTD/svg10.dtd">
<svg version="1.0" xmlns="http://www.w3.org/2000/svg"
 width="543.000000pt" height="172.000000pt" viewBox="0 0 543.000000 172.000000"
 preserveAspectRatio="xMidYMid meet">
<metadata>
Created by potrace 1.10, written by Peter Selinger 2001-2011
</metadata>
<g transform="translate(0.000000,172.000000) scale(0.100000,-0.100000)"
fill="#000000" stroke="none">
<path d="M3357 1033 c-16 -19 -61 -142 -54 -149 2 -3 14 27 27 65 12 39 29 76
36 82 21 17 49 -13 74 -77 17 -45 80 -281 80 -298 0 -3 -74 -6 -165 -6 l-165
0 0 180 0 180 -65 0 -65 0 0 -180 0 -180 -715 0 -715 0 0 180 0 180 -65 0 -65
0 0 -180 0 -180 -752 -3 c-414 -1 42 -3 1014 -5 l1766 -2 7 -32 c31 -141 96
-312 123 -323 36 -14 63 39 117 234 l32 116 111 3 110 3 22 -68 c28 -84 67
-160 88 -168 29 -11 67 30 120 133 l53 103 71 -3 71 -3 16 -45 c21 -59 29 -70
51 -70 19 0 75 57 92 96 l11 24 406 3 406 2 -486 3 -485 2 -23 56 c-13 31 -30
58 -38 61 -19 7 -57 -30 -78 -78 l-18 -39 -138 0 -137 0 -17 53 c-26 79 -73
174 -90 181 -37 14 -51 -8 -96 -144 l-27 -85 -135 -3 -134 -3 -32 125 c-37
150 -64 225 -91 254 -25 27 -32 27 -53 5z m581 -178 c21 -26 86 -194 79 -202
-3 -2 -50 -2 -105 -1 l-100 3 28 88 c28 89 53 137 70 137 4 0 17 -11 28 -25z
m-159 -287 c-61 -226 -92 -294 -122 -270 -26 22 -84 182 -112 310 l-7 32 131
0 130 0 -20 -72z m471 -28 c-70 -140 -105 -158 -147 -76 -13 25 -63 162 -63
173 0 2 59 3 130 3 l130 0 -50 -100z"/>
</g>
</svg>
